  <svg width="32" height="32" viewBox="0 0 48 48" fill="none" xmlns="http://www.w3.org/2000/svg">
    <path
      d="M48 24C48 37.2548 37.2548 48 24 48C10.7452 48 0 37.2548 0 24C0 10.7452 10.7452 0 24 0C37.2548 0 48 10.7452 48 24Z"
      fill="black" />
    <path d="M45 24C45 35.598 35.598 45 24 45C12.402 45 3 35.598 3 24C3 12.402 12.402 3 24 3C35.598 3 45 12.402 45 24Z"
      fill="#ECECEC" />
    <path
      d="M23.4871 12.5024C23.8151 12.8241 23.9994 13.2605 23.9994 13.7155C23.9994 14.1704 23.8151 14.6068 23.4871 14.9285L15.9742 22.2945H36.25C36.7141 22.2945 37.1592 22.4753 37.4874 22.7971C37.8156 23.1189 38 23.5553 38 24.0104C38 24.4654 37.8156 24.9018 37.4874 25.2236C37.1592 25.5454 36.7141 25.7262 36.25 25.7262H15.9742L23.4871 33.0922C23.8058 33.4158 23.9822 33.8492 23.9782 34.2991C23.9743 34.749 23.7902 35.1793 23.4657 35.4974C23.1413 35.8156 22.7023 35.996 22.2435 35.9999C21.7846 36.0038 21.3426 35.8309 21.0125 35.5183L10.5124 25.2234C10.1843 24.9017 10 24.4653 10 24.0104C10 23.5554 10.1843 23.119 10.5124 22.7973L21.0125 12.5024C21.3407 12.1807 21.7857 12 22.2498 12C22.7138 12 23.1589 12.1807 23.4871 12.5024Z"
      fill="black" />
  </svg>
